<svg xmlns="http://www.w3.org/2000/svg" xmlns:xlink="http://www.w3.org/1999/xlink" width="500" zoomAndPan="magnify" viewBox="0 0 375 374.999991" height="500" preserveAspectRatio="xMidYMid meet" version="1.0"><defs><clipPath id="fd706373bb"><path d="M 0 0 L 370.5 0 L 370.5 370.5 L 0 370.5 Z M 0 0 " clip-rule="nonzero"/></clipPath></defs><g clip-path="url(#fd706373bb)"><path fill="#ffffff" d="M 185.25 0 C 82.9375 0 0 82.9375 0 185.25 C 0 287.5625 82.9375 370.5 185.25 370.5 C 287.5625 370.5 370.5 287.5625 370.5 185.25 C 370.5 82.9375 287.5625 0 185.25 0 Z M 220.632812 294.4375 C 214.964844 295.53125 212.945312 292.046875 212.945312 289.046875 C 212.945312 285.359375 213.09375 273.28125 213.09375 258.277344 C 213.09375 247.808594 209.519531 240.972656 205.515625 237.507812 C 230.394531 234.730469 256.535156 225.246094 256.535156 182.15625 C 256.535156 169.910156 252.21875 159.890625 245.046875 152.054688 C 246.195312 149.21875 250.03125 137.808594 243.9375 122.375 C 243.9375 122.375 234.582031 119.355469 213.242188 133.878906 C 204.3125 131.398438 194.753906 130.15625 185.269531 130.101562 C 175.765625 130.15625 166.207031 131.398438 157.296875 133.878906 C 135.953125 119.375 126.582031 122.375 126.582031 122.375 C 120.503906 137.824219 124.339844 149.21875 125.488281 152.054688 C 118.335938 159.890625 113.984375 169.910156 113.984375 182.15625 C 113.984375 225.132812 140.066406 234.75 164.871094 237.582031 C 161.6875 240.378906 158.796875 245.328125 157.777344 252.570312 C 151.40625 255.441406 135.234375 260.386719 125.265625 243.25 C 125.265625 243.25 119.375 232.488281 108.167969 231.691406 C 108.167969 231.691406 97.257812 231.542969 107.40625 238.507812 C 107.40625 238.507812 114.726562 241.953125 119.800781 254.921875 C 119.800781 254.921875 126.359375 276.746094 157.445312 269.964844 C 157.5 279.320312 157.59375 286.378906 157.59375 289.046875 C 157.59375 292.007812 155.554688 295.472656 149.960938 294.453125 C 105.554688 279.617188 73.542969 237.582031 73.542969 188.027344 C 73.542969 126.0625 123.5625 75.859375 185.269531 75.859375 C 246.976562 75.859375 296.992188 126.082031 296.992188 188.027344 C 296.992188 237.566406 265.019531 279.578125 220.652344 294.4375 Z M 220.632812 294.4375 " fill-opacity="1" fill-rule="nonzero"/></g></svg>