<svg width="32" height="50" viewBox="0 0 32 50" fill="none" xmlns="http://www.w3.org/2000/svg">
<path d="M16 0C11.856 0 7.88171 1.6462 4.95146 4.57646C2.0212 7.50671 0.375 11.481 0.375 15.625C0.375 31.25 16 50 16 50C16 50 31.625 31.25 31.625 15.625C31.625 11.481 29.9788 7.50671 27.0485 4.57646C24.1183 1.6462 20.144 0 16 0ZM16 25.1969C14.743 25.1969 13.4983 24.9493 12.337 24.4683C11.1757 23.9872 10.1205 23.2822 9.23166 22.3933C8.34283 21.5045 7.63777 20.4493 7.15674 19.288C6.67571 18.1267 6.42812 16.882 6.42812 15.625C6.42812 14.368 6.67571 13.1233 7.15674 11.962C7.63777 10.8007 8.34283 9.74549 9.23166 8.85666C10.1205 7.96783 11.1757 7.26277 12.337 6.78174C13.4983 6.30071 14.743 6.05313 16 6.05313C18.5386 6.05313 20.9733 7.06159 22.7683 8.85666C24.5634 10.6517 25.5719 13.0864 25.5719 15.625C25.5719 18.1636 24.5634 20.5983 22.7683 22.3933C20.9733 24.1884 18.5386 25.1969 16 25.1969ZM9.94688 15.625C9.94688 14.0188 10.5849 12.4784 11.7207 11.3426C12.8565 10.2068 14.3969 9.56875 16.0031 9.56875C17.6093 9.56875 19.1498 10.2068 20.2855 11.3426C21.4213 12.4784 22.0594 14.0188 22.0594 15.625C22.0594 17.2312 21.4213 18.7716 20.2855 19.9074C19.1498 21.0432 17.6093 21.6812 16.0031 21.6812C14.3969 21.6812 12.8565 21.0432 11.7207 19.9074C10.5849 18.7716 9.94688 17.2312 9.94688 15.625Z" fill="#A104A4"/>
</svg>
