<svg width="42" height="42" viewBox="0 0 42 42" fill="none" xmlns="http://www.w3.org/2000/svg">
<mask id="mask0_501_8" style="mask-type:luminance" maskUnits="userSpaceOnUse" x="0" y="0" width="42" height="42">
<path d="M21 16.8333C21.9576 16.8333 22.9057 16.6447 23.7904 16.2783C24.6751 15.9118 25.4789 15.3747 26.156 14.6977C26.8331 14.0206 27.3702 13.2167 27.7366 12.3321C28.1031 11.4474 28.2917 10.4992 28.2917 9.54167C28.2917 8.58411 28.1031 7.63593 27.7366 6.75127C27.3702 5.8666 26.8331 5.06277 26.156 4.38568C25.4789 3.70859 24.6751 3.17149 23.7904 2.80504C22.9057 2.4386 21.9576 2.25 21 2.25C19.0661 2.25 17.2115 3.01823 15.844 4.38568C14.4766 5.75313 13.7083 7.6078 13.7083 9.54167C13.7083 11.4755 14.4766 13.3302 15.844 14.6977C17.2115 16.0651 19.0661 16.8333 21 16.8333ZM2.25 38.5V39.75H39.75V38.5C39.75 33.8333 39.75 31.5 38.8417 29.7167C38.0427 28.1487 36.7679 26.8739 35.2 26.075C33.4167 25.1667 31.0833 25.1667 26.4167 25.1667H15.5833C10.9167 25.1667 8.58333 25.1667 6.8 26.075C5.23205 26.8739 3.95727 28.1487 3.15833 29.7167C2.25 31.5 2.25 33.8333 2.25 38.5Z" fill="white" stroke="white" stroke-width="4" stroke-linecap="round" stroke-linejoin="round"/>
</mask>
<g mask="url(#mask0_501_8)">
<path d="M-4 -4H46V46H-4V-4Z" fill="#A104A4"/>
</g>
</svg>
