<svg width="42" height="42" viewBox="0 0 42 42" fill="none" xmlns="http://www.w3.org/2000/svg">
<path d="M35.6875 6.22913C33.7775 4.29981 31.5025 2.7701 28.9951 1.72923C26.4877 0.688366 23.7982 0.15717 21.0834 0.166628C9.70837 0.166628 0.437541 9.43746 0.437541 20.8125C0.437541 24.4583 1.39587 28 3.18754 31.125L0.270874 41.8333L11.2084 38.9583C14.2292 40.6041 17.625 41.4791 21.0834 41.4791C32.4584 41.4791 41.7292 32.2083 41.7292 20.8333C41.7292 15.3125 39.5834 10.125 35.6875 6.22913ZM21.0834 37.9791C18 37.9791 14.9792 37.1458 12.3334 35.5833L11.7084 35.2083L5.20837 36.9166L6.93754 30.5833L6.52087 29.9375C4.80785 27.202 3.89825 24.04 3.89587 20.8125C3.89587 11.3541 11.6042 3.64579 21.0625 3.64579C25.6459 3.64579 29.9584 5.43746 33.1875 8.68746C34.7865 10.2791 36.0536 12.1722 36.9154 14.2571C37.7773 16.342 38.2168 18.5773 38.2084 20.8333C38.25 30.2916 30.5417 37.9791 21.0834 37.9791ZM30.5 25.1458C29.9792 24.8958 27.4375 23.6458 26.9792 23.4583C26.5 23.2916 26.1667 23.2083 25.8125 23.7083C25.4584 24.2291 24.4792 25.3958 24.1875 25.7291C23.8959 26.0833 23.5834 26.125 23.0625 25.8541C22.5417 25.6041 20.875 25.0416 18.9167 23.2916C17.375 21.9166 16.3542 20.2291 16.0417 19.7083C15.75 19.1875 16 18.9166 16.2709 18.6458C16.5 18.4166 16.7917 18.0416 17.0417 17.75C17.2917 17.4583 17.3959 17.2291 17.5625 16.8958C17.7292 16.5416 17.6459 16.25 17.5209 16C17.3959 15.75 16.3542 13.2083 15.9375 12.1666C15.5209 11.1666 15.0834 11.2916 14.7709 11.2708H13.7709C13.4167 11.2708 12.875 11.3958 12.3959 11.9166C11.9375 12.4375 10.6042 13.6875 10.6042 16.2291C10.6042 18.7708 12.4584 21.2291 12.7084 21.5625C12.9584 21.9166 16.3542 27.125 21.5209 29.3541C22.75 29.8958 23.7084 30.2083 24.4584 30.4375C25.6875 30.8333 26.8125 30.7708 27.7084 30.6458C28.7084 30.5 30.7709 29.3958 31.1875 28.1875C31.625 26.9791 31.625 25.9583 31.4792 25.7291C31.3334 25.5 31.0209 25.3958 30.5 25.1458Z" fill="#A104A4"/>
</svg>
